<svg width="60" height="60" viewBox="0 0 60 60" fill="none" xmlns="http://www.w3.org/2000/svg">
<g filter="url(#filter0_d_60_388)">
<path d="M47.5 10H12.5C10.5109 10 8.60322 10.7902 7.1967 12.1967C5.79018 13.6032 5 15.5109 5 17.5V42.5C5 44.4891 5.79018 46.3968 7.1967 47.8033C8.60322 49.2098 10.5109 50 12.5 50H47.5C49.4891 50 51.3968 49.2098 52.8033 47.8033C54.2098 46.3968 55 44.4891 55 42.5V17.5C55 15.5109 54.2098 13.6032 52.8033 12.1967C51.3968 10.7902 49.4891 10 47.5 10ZM45.825 15L30 26.875L14.175 15H45.825ZM47.5 45H12.5C11.837 45 11.2011 44.7366 10.7322 44.2678C10.2634 43.7989 10 43.163 10 42.5V18.125L28.5 32C28.9327 32.3246 29.4591 32.5 30 32.5C30.5409 32.5 31.0673 32.3246 31.5 32L50 18.125V42.5C50 43.163 49.7366 43.7989 49.2678 44.2678C48.7989 44.7366 48.163 45 47.5 45Z" fill="url(#paint0_linear_60_388)"/>
</g>
<defs>
<filter id="filter0_d_60_388" x="1" y="10" width="58" height="48" filterUnits="userSpaceOnUse" color-interpolation-filters="sRGB">
<feFlood flood-opacity="0" result="BackgroundImageFix"/>
<feColorMatrix in="SourceAlpha" type="matrix" values="0 0 0 0 0 0 0 0 0 0 0 0 0 0 0 0 0 0 127 0" result="hardAlpha"/>
<feOffset dy="4"/>
<feGaussianBlur stdDeviation="2"/>
<feComposite in2="hardAlpha" operator="out"/>
<feColorMatrix type="matrix" values="0 0 0 0 0 0 0 0 0 0 0 0 0 0 0 0 0 0 0.25 0"/>
<feBlend mode="normal" in2="BackgroundImageFix" result="effect1_dropShadow_60_388"/>
<feBlend mode="normal" in="SourceGraphic" in2="effect1_dropShadow_60_388" result="shape"/>
</filter>
<linearGradient id="paint0_linear_60_388" x1="30" y1="10" x2="30" y2="50" gradientUnits="userSpaceOnUse">
<stop stop-color="#09AEC4"/>
<stop offset="1" stop-color="#00FFE6"/>
</linearGradient>
</defs>
</svg>
