<svg width="35" height="35" viewBox="0 0 35 35" fill="none" xmlns="http://www.w3.org/2000/svg">
<g filter="url(#filter0_d_2_51)">
<path fill-rule="evenodd" clip-rule="evenodd" d="M28.5468 16.8094C28.8906 16.2188 28.2464 15.5768 27.5841 15.7601C26.9426 15.9377 26.2764 16.0656 25.5896 16.1389C19.045 16.8369 13.1057 12.3071 12.3238 6.02134C12.1785 4.85337 12.2215 3.70697 12.4298 2.60995C12.5577 1.93633 11.8669 1.33538 11.2959 1.71245C7.79384 4.02519 5.71853 8.07991 6.26017 12.4342C7.04207 18.72 12.9814 23.2497 19.526 22.5517C23.4796 22.1301 26.7496 19.8971 28.5468 16.8094Z" fill="url(#paint0_linear_2_51)"/>
<path d="M23.5015 1.55914C23.5174 1.43539 23.6728 1.38809 23.7649 1.4789L24.6355 2.33659C24.6617 2.36236 24.696 2.37869 24.7324 2.38272L25.9683 2.51945C26.1037 2.53442 26.1619 2.69838 26.0626 2.78482L25.1556 3.57416C25.1288 3.59743 25.1117 3.62942 25.1072 3.66453L24.9564 4.83327C24.9404 4.95702 24.785 5.00433 24.6929 4.91352L23.8223 4.05582C23.7962 4.03005 23.7619 4.01373 23.7254 4.00969L22.4895 3.87296C22.3542 3.85799 22.2959 3.69403 22.3952 3.60759L23.3022 2.81826C23.329 2.79498 23.3461 2.76299 23.3507 2.72788L23.5015 1.55914Z" fill="url(#paint1_linear_2_51)"/>
<path d="M20.1228 6.1259C20.1438 6.00286 20.3005 5.96126 20.3888 6.05525L22.3119 8.10221C22.337 8.12891 22.3706 8.14646 22.4068 8.15178L25.2731 8.5729C25.4078 8.59268 25.4593 8.75918 25.3565 8.84205L23.1669 10.6058C23.1392 10.6281 23.1208 10.6595 23.1148 10.6944L22.6556 13.374C22.6345 13.4971 22.4779 13.5387 22.3896 13.4447L20.4665 11.3977C20.4414 11.371 20.4078 11.3535 20.3716 11.3481L17.5053 10.927C17.3706 10.9072 17.3191 10.7407 17.4219 10.6579L19.6115 8.89409C19.6392 8.87181 19.6576 8.84045 19.6636 8.80549L20.1228 6.1259Z" fill="url(#paint2_linear_2_51)"/>
</g>
<defs>
<filter id="filter0_d_2_51" x="0.0243783" y="1.43164" width="34.7684" height="33.4917" filterUnits="userSpaceOnUse" color-interpolation-filters="sRGB">
<feFlood flood-opacity="0" result="BackgroundImageFix"/>
<feColorMatrix in="SourceAlpha" type="matrix" values="0 0 0 0 0 0 0 0 0 0 0 0 0 0 0 0 0 0 127 0" result="hardAlpha"/>
<feOffset dy="6.15035"/>
<feGaussianBlur stdDeviation="3.07518"/>
<feComposite in2="hardAlpha" operator="out"/>
<feColorMatrix type="matrix" values="0 0 0 0 0 0 0 0 0 0 0 0 0 0 0 0 0 0 0.25 0"/>
<feBlend mode="normal" in2="BackgroundImageFix" result="effect1_dropShadow_2_51"/>
<feBlend mode="normal" in="SourceGraphic" in2="effect1_dropShadow_2_51" result="shape"/>
</filter>
<linearGradient id="paint0_linear_2_51" x1="15.7993" y1="1.15179" x2="18.0979" y2="22.704" gradientUnits="userSpaceOnUse">
<stop stop-color="#CECECE"/>
<stop offset="0.739583" stop-color="#EAEAEA"/>
<stop offset="1" stop-color="#F5F5F5"/>
</linearGradient>
<linearGradient id="paint1_linear_2_51" x1="23.5404" y1="1.25763" x2="24.7378" y2="5.18951" gradientUnits="userSpaceOnUse">
<stop stop-color="#CECECE"/>
<stop offset="0.739583" stop-color="#EAEAEA"/>
<stop offset="1" stop-color="#F5F5F5"/>
</linearGradient>
<linearGradient id="paint2_linear_2_51" x1="20.174" y1="5.82666" x2="22.2806" y2="13.7592" gradientUnits="userSpaceOnUse">
<stop stop-color="#CECECE"/>
<stop offset="0.739583" stop-color="#EAEAEA"/>
<stop offset="1" stop-color="#F5F5F5"/>
</linearGradient>
</defs>
</svg>
