<svg width="60" height="63" viewBox="0 0 60 63" fill="none" xmlns="http://www.w3.org/2000/svg">
<g filter="url(#filter0_d_60_384)">
<path d="M32.5001 20C34.4892 20 36.3969 20.7902 37.8034 22.1967C39.2099 23.6032 40.0001 25.5109 40.0001 27.5C40.0001 28.163 40.2635 28.7989 40.7324 29.2678C41.2012 29.7366 41.8371 30 42.5001 30C43.1632 30 43.7991 29.7366 44.2679 29.2678C44.7367 28.7989 45.0001 28.163 45.0001 27.5C45.0001 24.1848 43.6832 21.0054 41.339 18.6612C38.9948 16.317 35.8153 15 32.5001 15C31.8371 15 31.2012 15.2634 30.7324 15.7322C30.2635 16.2011 30.0001 16.837 30.0001 17.5C30.0001 18.163 30.2635 18.7989 30.7324 19.2678C31.2012 19.7366 31.8371 20 32.5001 20Z" fill="url(#paint0_linear_60_384)"/>
<path d="M32.5001 10C37.1414 10 41.5926 11.8437 44.8745 15.1256C48.1564 18.4075 50.0001 22.8587 50.0001 27.5C50.0001 28.163 50.2635 28.7989 50.7324 29.2678C51.2012 29.7366 51.8371 30 52.5001 30C53.1632 30 53.7991 29.7366 54.2679 29.2678C54.7367 28.7989 55.0001 28.163 55.0001 27.5C55.0001 21.5326 52.6296 15.8097 48.41 11.5901C44.1905 7.37053 38.4675 5 32.5001 5C31.8371 5 31.2012 5.26339 30.7324 5.73223C30.2635 6.20107 30.0001 6.83696 30.0001 7.5C30.0001 8.16304 30.2635 8.79893 30.7324 9.26777C31.2012 9.73661 31.8371 10 32.5001 10Z" fill="url(#paint1_linear_60_384)"/>
<path d="M54.3751 39.775C54.2376 39.3737 54.0002 39.0139 53.6853 38.7296C53.3704 38.4454 52.9884 38.2459 52.5751 38.15L37.5751 34.725C37.168 34.6327 36.7442 34.6438 36.3424 34.7573C35.9407 34.8709 35.5737 35.0832 35.2751 35.375C34.9251 35.7 34.9001 35.725 33.2751 38.825C27.8831 36.3404 23.5626 32.0021 21.1001 26.6C24.2751 25 24.3001 25 24.6251 24.625C24.9169 24.3264 25.1292 23.9595 25.2428 23.5577C25.3563 23.156 25.3674 22.7322 25.2751 22.325L21.8501 7.5C21.7542 7.08674 21.5548 6.70468 21.2705 6.38978C20.9862 6.07488 20.6265 5.83751 20.2251 5.7C19.6413 5.49147 19.0384 5.34075 18.4251 5.25C17.7933 5.10349 17.1485 5.01975 16.5001 5C13.4501 5 10.5251 6.2116 8.36839 8.36827C6.21173 10.5249 5.00012 13.45 5.00012 16.5C5.01335 26.7068 9.07384 36.4917 16.2911 43.709C23.5084 50.9263 33.2933 54.9868 43.5001 55C45.0103 55 46.5057 54.7025 47.901 54.1246C49.2962 53.5467 50.564 52.6996 51.6319 51.6317C52.6997 50.5639 53.5468 49.2961 54.1247 47.9009C54.7027 46.5056 55.0001 45.0102 55.0001 43.5C55.0009 42.8637 54.9507 42.2283 54.8501 41.6C54.7451 40.979 54.5861 40.3684 54.3751 39.775ZM43.5001 50C34.6174 49.9934 26.1004 46.4618 19.8194 40.1808C13.5383 33.8997 10.0067 25.3827 10.0001 16.5C10.0067 14.7781 10.6936 13.1286 11.9112 11.9111C13.1288 10.6935 14.7782 10.0066 16.5001 10H17.3251L20.0001 21.6L18.6501 22.3C16.5001 23.425 14.8001 24.325 15.7001 26.275C17.1657 30.4239 19.5371 34.1943 22.642 37.3122C25.7469 40.4301 29.5073 42.8172 33.6501 44.3C35.7501 45.15 36.5751 43.575 37.7001 41.4L38.4251 40.025L50.0001 42.675V43.5C49.9935 45.2219 49.3066 46.8714 48.089 48.0889C46.8715 49.3065 45.222 49.9934 43.5001 50Z" fill="url(#paint2_linear_60_384)"/>
</g>
<defs>
<filter id="filter0_d_60_384" x="1.00012" y="5" width="58" height="58" filterUnits="userSpaceOnUse" color-interpolation-filters="sRGB">
<feFlood flood-opacity="0" result="BackgroundImageFix"/>
<feColorMatrix in="SourceAlpha" type="matrix" values="0 0 0 0 0 0 0 0 0 0 0 0 0 0 0 0 0 0 127 0" result="hardAlpha"/>
<feOffset dy="4"/>
<feGaussianBlur stdDeviation="2"/>
<feComposite in2="hardAlpha" operator="out"/>
<feColorMatrix type="matrix" values="0 0 0 0 0 0 0 0 0 0 0 0 0 0 0 0 0 0 0.25 0"/>
<feBlend mode="normal" in2="BackgroundImageFix" result="effect1_dropShadow_60_384"/>
<feBlend mode="normal" in="SourceGraphic" in2="effect1_dropShadow_60_384" result="shape"/>
</filter>
<linearGradient id="paint0_linear_60_384" x1="37.5001" y1="15" x2="37.5001" y2="30" gradientUnits="userSpaceOnUse">
<stop stop-color="#09AEC4"/>
<stop offset="1" stop-color="#00FFE6"/>
</linearGradient>
<linearGradient id="paint1_linear_60_384" x1="42.5001" y1="5" x2="42.5001" y2="30" gradientUnits="userSpaceOnUse">
<stop stop-color="#09AEC4"/>
<stop offset="1" stop-color="#00FFE6"/>
</linearGradient>
<linearGradient id="paint2_linear_60_384" x1="30.0001" y1="5" x2="30.0001" y2="55" gradientUnits="userSpaceOnUse">
<stop stop-color="#09AEC4"/>
<stop offset="1" stop-color="#00FFE6"/>
</linearGradient>
</defs>
</svg>
