<svg width="60" height="64" viewBox="0 0 60 64" fill="none" xmlns="http://www.w3.org/2000/svg">
<g filter="url(#filter0_d_71_578)">
<path d="M32.5 20.7139C34.4891 20.7139 36.3968 21.504 37.8033 22.9106C39.2098 24.3171 40 26.2247 40 28.2139C40 28.8769 40.2634 29.5128 40.7322 29.9816C41.2011 30.4505 41.837 30.7139 42.5 30.7139C43.163 30.7139 43.7989 30.4505 44.2678 29.9816C44.7366 29.5128 45 28.8769 45 28.2139C45 24.8987 43.683 21.7192 41.3388 19.375C38.9946 17.0308 35.8152 15.7139 32.5 15.7139C31.837 15.7139 31.2011 15.9773 30.7322 16.4461C30.2634 16.9149 30 17.5508 30 18.2139C30 18.8769 30.2634 19.5128 30.7322 19.9816C31.2011 20.4505 31.837 20.7139 32.5 20.7139Z" fill="url(#paint0_linear_71_578)"/>
<path d="M32.5 10.7139C37.1413 10.7139 41.5925 12.5576 44.8744 15.8395C48.1563 19.1214 50 23.5726 50 28.2139C50 28.8769 50.2634 29.5128 50.7322 29.9816C51.2011 30.4505 51.837 30.7139 52.5 30.7139C53.163 30.7139 53.7989 30.4505 54.2678 29.9816C54.7366 29.5128 55 28.8769 55 28.2139C55 22.2465 52.6295 16.5235 48.4099 12.304C44.1903 8.0844 38.4674 5.71387 32.5 5.71387C31.837 5.71387 31.2011 5.97726 30.7322 6.4461C30.2634 6.91494 30 7.55083 30 8.21387C30 8.87691 30.2634 9.51279 30.7322 9.98163C31.2011 10.4505 31.837 10.7139 32.5 10.7139Z" fill="url(#paint1_linear_71_578)"/>
<path d="M54.375 40.4889C54.2375 40.0875 54.0001 39.7278 53.6852 39.4435C53.3703 39.1592 52.9883 38.9598 52.575 38.8639L37.575 35.4389C37.1678 35.3466 36.744 35.3577 36.3423 35.4712C35.9405 35.5847 35.5736 35.7971 35.275 36.0889C34.925 36.4139 34.9 36.4389 33.275 39.5389C27.883 37.0543 23.5625 32.716 21.1 27.3139C24.275 25.7139 24.3 25.7139 24.625 25.3389C24.9168 25.0403 25.1291 24.6733 25.2427 24.2716C25.3562 23.8698 25.3673 23.446 25.275 23.0389L21.85 8.21387C21.7541 7.80061 21.5546 7.41854 21.2704 7.10365C20.9861 6.78875 20.6263 6.55137 20.225 6.41387C19.6412 6.20534 19.0383 6.05462 18.425 5.96387C17.7931 5.81736 17.1483 5.73362 16.5 5.71387C13.45 5.71387 10.5249 6.92547 8.36827 9.08214C6.2116 11.2388 5 14.1639 5 17.2139C5.01323 27.4206 9.07372 37.2056 16.291 44.4229C23.5083 51.6402 33.2932 55.7006 43.5 55.7139C45.0102 55.7139 46.5056 55.4164 47.9009 54.8385C49.2961 54.2606 50.5639 53.4135 51.6317 52.3456C52.6996 51.2777 53.5467 50.01 54.1246 48.6147C54.7025 47.2195 55 45.7241 55 44.2139C55.0008 43.5775 54.9506 42.9422 54.85 42.3139C54.7449 41.6929 54.586 41.0823 54.375 40.4889ZM43.5 50.7139C34.6173 50.7072 26.1003 47.1757 19.8192 40.8946C13.5382 34.6136 10.0066 26.0966 10 17.2139C10.0066 15.492 10.6935 13.8425 11.9111 12.6249C13.1286 11.4074 14.7781 10.7205 16.5 10.7139H17.325L20 22.3139L18.65 23.0139C16.5 24.1389 14.8 25.0389 15.7 26.9889C17.1656 31.1378 19.5369 34.9082 22.6418 38.0261C25.7467 41.144 29.5072 43.531 33.65 45.0139C35.75 45.8639 36.575 44.2889 37.7 42.1139L38.425 40.7389L50 43.3889V44.2139C49.9934 45.9357 49.3065 47.5852 48.0889 48.8028C46.8714 50.0204 45.2219 50.7073 43.5 50.7139Z" fill="url(#paint2_linear_71_578)"/>
</g>
<defs>
<filter id="filter0_d_71_578" x="1" y="5.71387" width="58" height="58" filterUnits="userSpaceOnUse" color-interpolation-filters="sRGB">
<feFlood flood-opacity="0" result="BackgroundImageFix"/>
<feColorMatrix in="SourceAlpha" type="matrix" values="0 0 0 0 0 0 0 0 0 0 0 0 0 0 0 0 0 0 127 0" result="hardAlpha"/>
<feOffset dy="4"/>
<feGaussianBlur stdDeviation="2"/>
<feComposite in2="hardAlpha" operator="out"/>
<feColorMatrix type="matrix" values="0 0 0 0 0 0 0 0 0 0 0 0 0 0 0 0 0 0 0.25 0"/>
<feBlend mode="normal" in2="BackgroundImageFix" result="effect1_dropShadow_71_578"/>
<feBlend mode="normal" in="SourceGraphic" in2="effect1_dropShadow_71_578" result="shape"/>
</filter>
<linearGradient id="paint0_linear_71_578" x1="37.5" y1="15.7139" x2="37.5" y2="30.7139" gradientUnits="userSpaceOnUse">
<stop stop-color="#002529"/>
<stop offset="1" stop-color="#7D7D7D"/>
</linearGradient>
<linearGradient id="paint1_linear_71_578" x1="42.5" y1="5.71387" x2="42.5" y2="30.7139" gradientUnits="userSpaceOnUse">
<stop stop-color="#002529"/>
<stop offset="1" stop-color="#7D7D7D"/>
</linearGradient>
<linearGradient id="paint2_linear_71_578" x1="30" y1="5.71387" x2="30" y2="55.7139" gradientUnits="userSpaceOnUse">
<stop stop-color="#002529"/>
<stop offset="1" stop-color="#7D7D7D"/>
</linearGradient>
</defs>
</svg>
