<svg width="166" height="167" viewBox="0 0 166 167" fill="none" xmlns="http://www.w3.org/2000/svg">
<circle cx="94" cy="6.71387" r="6" fill="#192644"/>
<circle cx="116" cy="6.71387" r="6" fill="#192644"/>
<circle cx="138" cy="6.71387" r="6" fill="#192644"/>
<circle cx="160" cy="6.71387" r="6" fill="#192644"/>
<circle cx="160" cy="28.7139" r="6" fill="#192644"/>
<circle cx="138" cy="28.7139" r="6" fill="#192644"/>
<circle cx="116" cy="28.7139" r="6" fill="#192644"/>
<circle cx="94" cy="28.7139" r="6" fill="#192644"/>
<circle cx="94" cy="50.7139" r="6" fill="#192644"/>
<circle cx="116" cy="50.7139" r="6" fill="#192644"/>
<circle cx="138" cy="50.7139" r="6" fill="#192644"/>
<circle cx="160" cy="50.7139" r="6" fill="#192644"/>
<circle cx="160" cy="72.7139" r="6" fill="#192644"/>
<circle cx="94" cy="72.7139" r="6" fill="#192644"/>
<circle cx="116" cy="72.7139" r="6" fill="#192644"/>
<circle cx="138" cy="72.7139" r="6" fill="#192644"/>
<circle cx="94" cy="94.7139" r="6" fill="#192644"/>
<circle cx="116" cy="94.7139" r="6" fill="#192644"/>
<circle cx="138" cy="94.7139" r="6" fill="#192644"/>
<circle cx="160" cy="94.7139" r="6" fill="#192644"/>
<circle cx="160" cy="116.714" r="6" fill="#192644"/>
<circle cx="138" cy="116.714" r="6" fill="#192644"/>
<circle cx="116" cy="116.714" r="6" fill="#192644"/>
<circle cx="94" cy="116.714" r="6" fill="#192644"/>
<circle cx="94" cy="138.714" r="6" fill="#192644"/>
<circle cx="116" cy="138.714" r="6" fill="#192644"/>
<circle cx="138" cy="138.714" r="6" fill="#192644"/>
<circle cx="160" cy="138.714" r="6" fill="#192644"/>
<circle cx="160" cy="160.714" r="6" fill="#192644"/>
<circle cx="94" cy="160.714" r="6" fill="#192644"/>
<circle cx="116" cy="160.714" r="6" fill="#192644"/>
<circle cx="138" cy="160.714" r="6" fill="#192644"/>
<circle cx="6" cy="94.7139" r="6" fill="#192644"/>
<circle cx="28" cy="94.7139" r="6" fill="#192644"/>
<circle cx="50" cy="94.7139" r="6" fill="#192644"/>
<circle cx="72" cy="94.7139" r="6" fill="#192644"/>
<circle cx="72" cy="116.714" r="6" fill="#192644"/>
<circle cx="50" cy="116.714" r="6" fill="#192644"/>
<circle cx="28" cy="116.714" r="6" fill="#192644"/>
<circle cx="6" cy="116.714" r="6" fill="#192644"/>
<circle cx="6" cy="138.714" r="6" fill="#192644"/>
<circle cx="28" cy="138.714" r="6" fill="#192644"/>
<circle cx="50" cy="138.714" r="6" fill="#192644"/>
<circle cx="72" cy="138.714" r="6" fill="#192644"/>
<circle cx="72" cy="160.714" r="6" fill="#192644"/>
<circle cx="6" cy="160.714" r="6" fill="#192644"/>
<circle cx="28" cy="160.714" r="6" fill="#192644"/>
<circle cx="50" cy="160.714" r="6" fill="#192644"/>
<circle cx="6" cy="6.71387" r="6" fill="#192644"/>
<circle cx="28" cy="6.71387" r="6" fill="#192644"/>
<circle cx="50" cy="6.71387" r="6" fill="#192644"/>
<circle cx="72" cy="6.71387" r="6" fill="#192644"/>
<circle cx="72" cy="28.7139" r="6" fill="#192644"/>
<circle cx="50" cy="28.7139" r="6" fill="#192644"/>
<circle cx="28" cy="28.7139" r="6" fill="#192644"/>
<circle cx="6" cy="28.7139" r="6" fill="#192644"/>
<circle cx="6" cy="50.7139" r="6" fill="#192644"/>
<circle cx="28" cy="50.7139" r="6" fill="#192644"/>
<circle cx="50" cy="50.7139" r="6" fill="#192644"/>
<circle cx="72" cy="50.7139" r="6" fill="#192644"/>
<circle cx="72" cy="72.7139" r="6" fill="#192644"/>
<circle cx="6" cy="72.7139" r="6" fill="#192644"/>
<circle cx="28" cy="72.7139" r="6" fill="#192644"/>
<circle cx="50" cy="72.7139" r="6" fill="#192644"/>
</svg>
