<svg width="24" height="24" viewBox="0 0 24 24" fill="none" xmlns="http://www.w3.org/2000/svg">
<path d="M12.0002 5.00004C12.3096 5.00004 12.6063 4.87712 12.8251 4.65833C13.0439 4.43954 13.1668 4.14279 13.1668 3.83337V1.50004C13.1668 1.19062 13.0439 0.893875 12.8251 0.675083C12.6063 0.45629 12.3096 0.333374 12.0002 0.333374C11.6907 0.333374 11.394 0.45629 11.1752 0.675083C10.9564 0.893875 10.8335 1.19062 10.8335 1.50004V3.83337C10.8335 4.14279 10.9564 4.43954 11.1752 4.65833C11.394 4.87712 11.6907 5.00004 12.0002 5.00004Z" fill="#192644"/>
<path d="M22.5 10.8334H20.1667C19.8572 10.8334 19.5605 10.9563 19.3417 11.1751C19.1229 11.3939 19 11.6906 19 12C19 12.3095 19.1229 12.6062 19.3417 12.825C19.5605 13.0438 19.8572 13.1667 20.1667 13.1667H22.5C22.8094 13.1667 23.1062 13.0438 23.325 12.825C23.5438 12.6062 23.6667 12.3095 23.6667 12C23.6667 11.6906 23.5438 11.3939 23.325 11.1751C23.1062 10.9563 22.8094 10.8334 22.5 10.8334Z" fill="#192644"/>
<path d="M5.00016 12C5.00016 11.6906 4.87725 11.3939 4.65845 11.1751C4.43966 10.9563 4.14292 10.8334 3.8335 10.8334H1.50016C1.19074 10.8334 0.893997 10.9563 0.675205 11.1751C0.456412 11.3939 0.333496 11.6906 0.333496 12C0.333496 12.3095 0.456412 12.6062 0.675205 12.825C0.893997 13.0438 1.19074 13.1667 1.50016 13.1667H3.8335C4.14292 13.1667 4.43966 13.0438 4.65845 12.825C4.87725 12.6062 5.00016 12.3095 5.00016 12Z" fill="#192644"/>
<path d="M5.25661 3.83333C5.02919 3.61829 4.72565 3.50239 4.41278 3.51114C4.09991 3.51989 3.80332 3.65258 3.58828 3.88C3.37323 4.10742 3.25734 4.41096 3.26609 4.72383C3.27484 5.0367 3.40752 5.33329 3.63494 5.54833L5.31494 7.17C5.42768 7.27886 5.5612 7.36389 5.70753 7.42002C5.85385 7.47614 6.00999 7.50221 6.16661 7.49667C6.32377 7.49607 6.47918 7.46372 6.62353 7.40157C6.76787 7.33942 6.89817 7.24875 7.00661 7.135C7.2239 6.91641 7.34587 6.62072 7.34587 6.3125C7.34587 6.00428 7.2239 5.70859 7.00661 5.49L5.25661 3.83333Z" fill="#192644"/>
<path d="M17.8334 7.49668C18.1338 7.49548 18.4221 7.37847 18.6384 7.17001L20.3184 5.54834C20.5233 5.3342 20.6391 5.05008 20.6421 4.75369C20.6452 4.4573 20.5353 4.17086 20.3348 3.95254C20.1343 3.73423 19.8582 3.60041 19.5627 3.57827C19.2671 3.55613 18.9742 3.64733 18.7434 3.83334L17.0634 5.49001C16.8461 5.7086 16.7241 6.00429 16.7241 6.31251C16.7241 6.62073 16.8461 6.91642 17.0634 7.13501C17.2654 7.34818 17.5403 7.47733 17.8334 7.49668Z" fill="#192644"/>
<path d="M12.0002 19C11.6907 19 11.394 19.1229 11.1752 19.3417C10.9564 19.5605 10.8335 19.8572 10.8335 20.1667V22.5C10.8335 22.8094 10.9564 23.1062 11.1752 23.325C11.394 23.5438 11.6907 23.6667 12.0002 23.6667C12.3096 23.6667 12.6063 23.5438 12.8251 23.325C13.0439 23.1062 13.1668 22.8094 13.1668 22.5V20.1667C13.1668 19.8572 13.0439 19.5605 12.8251 19.3417C12.6063 19.1229 12.3096 19 12.0002 19Z" fill="#192644"/>
<path d="M18.6849 16.83C18.4621 16.615 18.163 16.4972 17.8534 16.5027C17.5438 16.5082 17.2491 16.6364 17.034 16.8592C16.819 17.082 16.7013 17.381 16.7067 17.6906C16.7122 18.0002 16.8404 18.295 17.0632 18.51L18.7432 20.1667C18.9595 20.3751 19.2478 20.4921 19.5482 20.4933C19.7045 20.4942 19.8594 20.4637 20.0037 20.4036C20.148 20.3435 20.2788 20.255 20.3882 20.1433C20.4976 20.0349 20.5843 19.9058 20.6436 19.7637C20.7028 19.6215 20.7333 19.469 20.7333 19.315C20.7333 19.161 20.7028 19.0085 20.6436 18.8663C20.5843 18.7242 20.4976 18.5951 20.3882 18.4867L18.6849 16.83Z" fill="#192644"/>
<path d="M5.31489 16.83L3.63489 18.4516C3.52554 18.5601 3.43875 18.6891 3.37952 18.8313C3.32029 18.9735 3.28979 19.126 3.28979 19.28C3.28979 19.434 3.32029 19.5865 3.37952 19.7286C3.43875 19.8708 3.52554 19.9999 3.63489 20.1083C3.74432 20.2199 3.87506 20.3085 4.01936 20.3686C4.16366 20.4287 4.31857 20.4592 4.47489 20.4583C4.76249 20.4608 5.04086 20.3569 5.25656 20.1666L6.93656 18.545C7.15934 18.3299 7.28757 18.0352 7.29304 17.7256C7.29851 17.416 7.18077 17.1169 6.96573 16.8941C6.75068 16.6714 6.45594 16.5431 6.14635 16.5377C5.83676 16.5322 5.53767 16.6499 5.31489 16.865V16.83Z" fill="#192644"/>
<path d="M12.0002 7.33337C11.0772 7.33337 10.1749 7.60707 9.4075 8.11985C8.64008 8.63263 8.04194 9.36146 7.68873 10.2142C7.33552 11.0669 7.2431 12.0052 7.42317 12.9105C7.60323 13.8157 8.04769 14.6472 8.70033 15.2999C9.35298 15.9525 10.1845 16.397 11.0897 16.577C11.995 16.7571 12.9333 16.6647 13.786 16.3115C14.6387 15.9583 15.3676 15.3601 15.8804 14.5927C16.3931 13.8253 16.6668 12.923 16.6668 12C16.6668 10.7624 16.1752 9.57538 15.3 8.70021C14.4248 7.82504 13.2378 7.33337 12.0002 7.33337ZM12.0002 14.3334C11.5387 14.3334 11.0875 14.1965 10.7038 13.9401C10.3201 13.6837 10.0211 13.3193 9.84445 12.893C9.66784 12.4666 9.62163 11.9975 9.71167 11.5448C9.8017 11.0922 10.0239 10.6764 10.3502 10.3501C10.6766 10.0238 11.0923 9.80157 11.545 9.71154C11.9976 9.62151 12.4667 9.66772 12.8931 9.84432C13.3195 10.0209 13.6839 10.32 13.9403 10.7037C14.1967 11.0874 14.3335 11.5386 14.3335 12C14.3335 12.6189 14.0877 13.2124 13.6501 13.65C13.2125 14.0875 12.619 14.3334 12.0002 14.3334Z" fill="#192644"/>
</svg>
